0
SECTION
2
HEADER
9
$INSUNITS
70
4
0
ENDSEC
0
SECTION
2
BLOCKS
0
BLOCK
8
0
2
GEAR
70
0
10
0
20
0
30
0
0
LINE
8
0
10
1.5000
20
0.0000
30
0
11
3.0000
21
0.0000
31
0
0
LINE
8
0
10
1.3858
20
0.5740
30
0
11
2.7716
21
1.1481
31
0
0
LINE
8
0
10
1.0607
20
1.0607
30
0
11
2.1213
21
2.1213
31
0
0
LINE
8
0
10
0.5740
20
1.3858
30
0
11
1.1481
21
2.7716
31
0
0
LINE
8
0
10
0.0000
20
1.5000
30
0
11
0.0000
21
3.0000
31
0
0
LINE
8
0
10
-0.5740
20
1.3858
30
0
11
-1.1481
21
2.7716
31
0
0
LINE
8
0
10
-1.0607
20
1.0607
30
0
11
-2.1213
21
2.1213
31
0
0
LINE
8
0
10
-1.3858
20
0.5740
30
0
11
-2.7716
21
1.1481
31
0
0
LINE
8
0
10
-1.5000
20
0.0000
30
0
11
-3.0000
21
0.0000
31
0
0
LINE
8
0
10
-1.3858
20
-0.5740
30
0
11
-2.7716
21
-1.1481
31
0
0
LINE
8
0
10
-1.0607
20
-1.0607
30
0
11
-2.1213
21
-2.1213
31
0
0
LINE
8
0
10
-0.5740
20
-1.3858
30
0
11
-1.1481
21
-2.7716
31
0
0
LINE
8
0
10
-0.0000
20
-1.5000
30
0
11
-0.0000
21
-3.0000
31
0
0
LINE
8
0
10
0.5740
20
-1.3858
30
0
11
1.1481
21
-2.7716
31
0
0
LINE
8
0
10
1.0607
20
-1.0607
30
0
11
2.1213
21
-2.1213
31
0
0
LINE
8
0
10
1.3858
20
-0.5740
30
0
11
2.7716
21
-1.1481
31
0
0
ENDBLK
0
ENDSEC
0
SECTION
2
ENTITIES
0
LINE
8
PART
10
0
20
0
30
0
11
18.56
21
0
31
0
0
LINE
8
PART
10
18.56
20
0
30
0
11
18.56
21
25.4
31
0
0
LINE
8
PART
10
18.56
20
25.4
30
0
11
0
21
25.4
31
0
0
LINE
8
PART
10
0
20
25.4
30
0
11
0
21
0
31
0
0
LINE
8
PART
10
30
20
0
30
0
11
50
21
20
31
0
0
LINE
8
PART
10
30
20
20
30
0
11
50
21
0
31
0
0
LWPOLYLINE
8
PART
90
6
70
0
10
60
20
0
10
66
20
12
10
72
20
2
10
78
20
14
10
84
20
4
10
90
20
16
0
POINT
8
PART
10
5
20
32
30
0
0
POINT
8
PART
10
12
20
32
30
0
0
INSERT
8
PART
2
GEAR
10
5
20
42
30
0
0
INSERT
8
PART
2
GEAR
10
15
20
42
30
0
0
INSERT
8
PART
2
GEAR
10
25
20
42
30
0
0
INSERT
8
PART
2
GEAR
10
35
20
42
30
0
0
INSERT
8
PART
2
GEAR
10
45
20
42
30
0
0
INSERT
8
PART
2
GEAR
10
55
20
42
30
0
0
INSERT
8
PART
2
GEAR
10
65
20
42
30
0
0
INSERT
8
PART
2
GEAR
10
75
20
42
30
0
0
INSERT
8
PART
2
GEAR
10
85
20
42
30
0
0
INSERT
8
PART
2
GEAR
10
95
20
42
30
0
0
INSERT
8
PART
2
GEAR
10
5
20
51
30
0
0
INSERT
8
PART
2
GEAR
10
15
20
51
30
0
0
INSERT
8
PART
2
GEAR
10
25
20
51
30
0
0
INSERT
8
PART
2
GEAR
10
35
20
51
30
0
0
INSERT
8
PART
2
GEAR
10
45
20
51
30
0
0
INSERT
8
PART
2
GEAR
10
55
20
51
30
0
0
INSERT
8
PART
2
GEAR
10
65
20
51
30
0
0
INSERT
8
PART
2
GEAR
10
75
20
51
30
0
0
INSERT
8
PART
2
GEAR
10
85
20
51
30
0
0
INSERT
8
PART
2
GEAR
10
95
20
51
30
0
0
INSERT
8
PART
2
GEAR
10
5
20
60
30
0
0
INSERT
8
PART
2
GEAR
10
15
20
60
30
0
0
INSERT
8
PART
2
GEAR
10
25
20
60
30
0
0
INSERT
8
PART
2
GEAR
10
35
20
60
30
0
0
INSERT
8
PART
2
GEAR
10
45
20
60
30
0
0
INSERT
8
PART
2
GEAR
10
55
20
60
30
0
0
INSERT
8
PART
2
GEAR
10
65
20
60
30
0
0
INSERT
8
PART
2
GEAR
10
75
20
60
30
0
0
INSERT
8
PART
2
GEAR
10
85
20
60
30
0
0
INSERT
8
PART
2
GEAR
10
95
20
60
30
0
0
INSERT
8
PART
2
GEAR
10
5
20
69
30
0
0
INSERT
8
PART
2
GEAR
10
15
20
69
30
0
0
INSERT
8
PART
2
GEAR
10
25
20
69
30
0
0
INSERT
8
PART
2
GEAR
10
35
20
69
30
0
0
INSERT
8
PART
2
GEAR
10
45
20
69
30
0
0
INSERT
8
PART
2
GEAR
10
55
20
69
30
0
0
INSERT
8
PART
2
GEAR
10
65
20
69
30
0
0
INSERT
8
PART
2
GEAR
10
75
20
69
30
0
0
INSERT
8
PART
2
GEAR
10
85
20
69
30
0
0
INSERT
8
PART
2
GEAR
10
95
20
69
30
0
0
ENDSEC
0
EOF
